<svg id="visual" viewBox="0 0 960 540" width="960" height="540" xmlns="http://www.w3.org/2000/svg" xmlns:xlink="http://www.w3.org/1999/xlink" version="1.1"><rect x="0" y="0" width="960" height="540" fill="#001220"></rect><defs><linearGradient id="grad1_0" x1="43.8%" y1="0%" x2="100%" y2="100%"><stop offset="14.444444444444446%" stop-color="#001220" stop-opacity="1"></stop><stop offset="85.55555555555554%" stop-color="#001220" stop-opacity="1"></stop></linearGradient></defs><defs><linearGradient id="grad2_0" x1="0%" y1="0%" x2="56.3%" y2="100%"><stop offset="14.444444444444446%" stop-color="#001220" stop-opacity="1"></stop><stop offset="85.55555555555554%" stop-color="#001220" stop-opacity="1"></stop></linearGradient></defs><g transform="translate(960, 0)"><path d="M0 243C-26.2 226.8 -52.4 210.5 -83.4 201.4C-114.5 192.3 -150.4 190.3 -171.8 171.8C-193.3 153.3 -200.3 118.3 -209.7 86.9C-219.2 55.5 -231.1 27.7 -243 0L0 0Z" fill="#FBAE3C"></path></g><g transform="translate(0, 540)"><path d="M0 -243C31.1 -234.8 62.2 -226.7 88 -212.5C113.8 -198.3 134.4 -178.1 158.4 -158.4C182.4 -138.6 209.8 -119.3 224.5 -93C239.2 -66.7 241.1 -33.3 243 0L0 0Z" fill="#FBAE3C"></path></g></svg>