<svg id="visual" viewBox="0 0 900 300" width="900" height="300" xmlns="http://www.w3.org/2000/svg" xmlns:xlink="http://www.w3.org/1999/xlink" version="1.1"><rect x="0" y="0" width="900" height="300" fill="#001220"></rect><path d="M0 212L15 206.5C30 201 60 190 90 190.2C120 190.3 150 201.7 180 207.7C210 213.7 240 214.3 270 211.7C300 209 330 203 360 197.8C390 192.7 420 188.3 450 187.8C480 187.3 510 190.7 540 195.7C570 200.7 600 207.3 630 203.8C660 200.3 690 186.7 720 187.8C750 189 780 205 810 208.2C840 211.3 870 201.7 885 196.8L900 192L900 301L885 301C870 301 840 301 810 301C780 301 750 301 720 301C690 301 660 301 630 301C600 301 570 301 540 301C510 301 480 301 450 301C420 301 390 301 360 301C330 301 300 301 270 301C240 301 210 301 180 301C150 301 120 301 90 301C60 301 30 301 15 301L0 301Z" fill="#715df2"></path><path d="M0 212L15 210.3C30 208.7 60 205.3 90 207.3C120 209.3 150 216.7 180 218.2C210 219.7 240 215.3 270 213.2C300 211 330 211 360 207.8C390 204.7 420 198.3 450 199.7C480 201 510 210 540 215.5C570 221 600 223 630 223.5C660 224 690 223 720 223.2C750 223.3 780 224.7 810 221C840 217.3 870 208.7 885 204.3L900 200L900 301L885 301C870 301 840 301 810 301C780 301 750 301 720 301C690 301 660 301 630 301C600 301 570 301 540 301C510 301 480 301 450 301C420 301 390 301 360 301C330 301 300 301 270 301C240 301 210 301 180 301C150 301 120 301 90 301C60 301 30 301 15 301L0 301Z" fill="#c53fd0"></path><path d="M0 239L15 238.3C30 237.7 60 236.3 90 236C120 235.7 150 236.3 180 233.3C210 230.3 240 223.7 270 221C300 218.3 330 219.7 360 222.3C390 225 420 229 450 231C480 233 510 233 540 235.5C570 238 600 243 630 243.3C660 243.7 690 239.3 720 233.3C750 227.3 780 219.7 810 217C840 214.3 870 216.7 885 217.8L900 219L900 301L885 301C870 301 840 301 810 301C780 301 750 301 720 301C690 301 660 301 630 301C600 301 570 301 540 301C510 301 480 301 450 301C420 301 390 301 360 301C330 301 300 301 270 301C240 301 210 301 180 301C150 301 120 301 90 301C60 301 30 301 15 301L0 301Z" fill="#f21ea3"></path><path d="M0 234L15 234.8C30 235.7 60 237.3 90 241.3C120 245.3 150 251.7 180 252.7C210 253.7 240 249.3 270 246.2C300 243 330 241 360 242.7C390 244.3 420 249.7 450 248.2C480 246.7 510 238.3 540 235.7C570 233 600 236 630 236.5C660 237 690 235 720 235.7C750 236.3 780 239.7 810 239.3C840 239 870 235 885 233L900 231L900 301L885 301C870 301 840 301 810 301C780 301 750 301 720 301C690 301 660 301 630 301C600 301 570 301 540 301C510 301 480 301 450 301C420 301 390 301 360 301C330 301 300 301 270 301C240 301 210 301 180 301C150 301 120 301 90 301C60 301 30 301 15 301L0 301Z" fill="#ff2673"></path><path d="M0 253L15 256.2C30 259.3 60 265.7 90 267.2C120 268.7 150 265.3 180 264.8C210 264.3 240 266.7 270 266C300 265.3 330 261.7 360 258.3C390 255 420 252 450 251.8C480 251.7 510 254.3 540 257C570 259.7 600 262.3 630 265.2C660 268 690 271 720 272C750 273 780 272 810 270.8C840 269.7 870 268.3 885 267.7L900 267L900 301L885 301C870 301 840 301 810 301C780 301 750 301 720 301C690 301 660 301 630 301C600 301 570 301 540 301C510 301 480 301 450 301C420 301 390 301 360 301C330 301 300 301 270 301C240 301 210 301 180 301C150 301 120 301 90 301C60 301 30 301 15 301L0 301Z" fill="#ff4f45"></path><path d="M0 273L15 272.8C30 272.7 60 272.3 90 272.5C120 272.7 150 273.3 180 274.2C210 275 240 276 270 277.2C300 278.3 330 279.7 360 280.2C390 280.7 420 280.3 450 279.3C480 278.3 510 276.7 540 277.5C570 278.3 600 281.7 630 281.5C660 281.3 690 277.7 720 276.3C750 275 780 276 810 278.3C840 280.7 870 284.3 885 286.2L900 288L900 301L885 301C870 301 840 301 810 301C780 301 750 301 720 301C690 301 660 301 630 301C600 301 570 301 540 301C510 301 480 301 450 301C420 301 390 301 360 301C330 301 300 301 270 301C240 301 210 301 180 301C150 301 120 301 90 301C60 301 30 301 15 301L0 301Z" fill="#f7770f"></path></svg>