<svg id="visual" viewBox="0 0 900 100" width="900" height="100" xmlns="http://www.w3.org/2000/svg" xmlns:xlink="http://www.w3.org/1999/xlink" version="1.1"><rect x="0" y="0" width="900" height="100" fill="#001220"></rect><path d="M0 41L15 37.3C30 33.7 60 26.3 90 26.5C120 26.7 150 34.3 180 38.3C210 42.3 240 42.7 270 40.8C300 39 330 35 360 31.5C390 28 420 25 450 24.7C480 24.3 510 26.7 540 30C570 33.3 600 37.7 630 35.3C660 33 690 24 720 24.8C750 25.7 780 36.3 810 38.5C840 40.7 870 34.3 885 31.2L900 28L900 101L885 101C870 101 840 101 810 101C780 101 750 101 720 101C690 101 660 101 630 101C600 101 570 101 540 101C510 101 480 101 450 101C420 101 390 101 360 101C330 101 300 101 270 101C240 101 210 101 180 101C150 101 120 101 90 101C60 101 30 101 15 101L0 101Z" fill="#715df2"></path><path d="M0 41L15 39.8C30 38.7 60 36.3 90 37.7C120 39 150 44 180 45C210 46 240 43 270 41.7C300 40.3 330 40.7 360 38.7C390 36.7 420 32.3 450 33C480 33.7 510 39.3 540 43C570 46.7 600 48.3 630 48.8C660 49.3 690 48.7 720 48.7C750 48.7 780 49.3 810 46.8C840 44.3 870 38.7 885 35.8L900 33L900 101L885 101C870 101 840 101 810 101C780 101 750 101 720 101C690 101 660 101 630 101C600 101 570 101 540 101C510 101 480 101 450 101C420 101 390 101 360 101C330 101 300 101 270 101C240 101 210 101 180 101C150 101 120 101 90 101C60 101 30 101 15 101L0 101Z" fill="#c53fd0"></path><path d="M0 59L15 58.5C30 58 60 57 90 56.7C120 56.3 150 56.7 180 54.8C210 53 240 49 270 47.3C300 45.7 330 46.3 360 48C390 49.7 420 52.3 450 53.7C480 55 510 55 540 56.7C570 58.3 600 61.7 630 62C660 62.3 690 59.7 720 55.7C750 51.7 780 46.3 810 44.5C840 42.7 870 44.3 885 45.2L900 46L900 101L885 101C870 101 840 101 810 101C780 101 750 101 720 101C690 101 660 101 630 101C600 101 570 101 540 101C510 101 480 101 450 101C420 101 390 101 360 101C330 101 300 101 270 101C240 101 210 101 180 101C150 101 120 101 90 101C60 101 30 101 15 101L0 101Z" fill="#f21ea3"></path><path d="M0 56L15 56.5C30 57 60 58 90 60.7C120 63.3 150 67.7 180 68.3C210 69 240 66 270 63.8C300 61.7 330 60.3 360 61.5C390 62.7 420 66.3 450 65.3C480 64.3 510 58.7 540 56.8C570 55 600 57 630 57.3C660 57.7 690 56.3 720 56.8C750 57.3 780 59.7 810 59.5C840 59.3 870 56.7 885 55.3L900 54L900 101L885 101C870 101 840 101 810 101C780 101 750 101 720 101C690 101 660 101 630 101C600 101 570 101 540 101C510 101 480 101 450 101C420 101 390 101 360 101C330 101 300 101 270 101C240 101 210 101 180 101C150 101 120 101 90 101C60 101 30 101 15 101L0 101Z" fill="#ff2673"></path><path d="M0 69L15 71C30 73 60 77 90 77.8C120 78.7 150 76.3 180 76C210 75.7 240 77.3 270 76.8C300 76.3 330 73.7 360 71.5C390 69.3 420 67.7 450 67.7C480 67.7 510 69.3 540 71C570 72.7 600 74.3 630 76.2C660 78 690 80 720 80.7C750 81.3 780 80.7 810 80C840 79.3 870 78.7 885 78.3L900 78L900 101L885 101C870 101 840 101 810 101C780 101 750 101 720 101C690 101 660 101 630 101C600 101 570 101 540 101C510 101 480 101 450 101C420 101 390 101 360 101C330 101 300 101 270 101C240 101 210 101 180 101C150 101 120 101 90 101C60 101 30 101 15 101L0 101Z" fill="#ff4f45"></path><path d="M0 82L15 81.8C30 81.7 60 81.3 90 81.3C120 81.3 150 81.7 180 82.3C210 83 240 84 270 84.8C300 85.7 330 86.3 360 86.7C390 87 420 87 450 86.3C480 85.7 510 84.3 540 84.8C570 85.3 600 87.7 630 87.5C660 87.3 690 84.7 720 83.7C750 82.7 780 83.3 810 85C840 86.7 870 89.3 885 90.7L900 92L900 101L885 101C870 101 840 101 810 101C780 101 750 101 720 101C690 101 660 101 630 101C600 101 570 101 540 101C510 101 480 101 450 101C420 101 390 101 360 101C330 101 300 101 270 101C240 101 210 101 180 101C150 101 120 101 90 101C60 101 30 101 15 101L0 101Z" fill="#f7770f"></path></svg>